<svg id="Layer_1" data-name="Layer 1" xmlns="http://www.w3.org/2000/svg" viewBox="0 0 188 433"><defs><style>.cls-1{fill:#ff4600;}.cls-2{opacity:0.47;}</style></defs><title>fliper-1</title><g id="Group_283" data-name="Group 283"><path id="Path_1942" data-name="Path 1942" class="cls-1" d="M10.77,13.64H85.11l33.24,35.5v72.09a1.57,1.57,0,1,1-3.13,0V50.38L83.75,16.78h-73a1.57,1.57,0,1,1,0-3.13Z"/></g><g id="Group_284" data-name="Group 284"><path id="Path_1943" data-name="Path 1943" class="cls-1" d="M116.79,310.21a1.58,1.58,0,0,1,1.57,1.57h0v74.34l-35.5,33.24H10.77a1.57,1.57,0,0,1,0-3.14H81.62l33.59-31.46v-73a1.58,1.58,0,0,1,1.57-1.56Z"/></g><g id="Group_287" data-name="Group 287" class="cls-2"><path id="Path_1946" data-name="Path 1946" class="cls-1" d="M136.64,245.83V187.18L178.8,218Z"/></g><g id="Group_288" data-name="Group 288"><path id="Path_1947" data-name="Path 1947" class="cls-1" d="M118.35,245.83V187.18L160.51,218Z"/></g></svg>