<svg xmlns="http://www.w3.org/2000/svg" width="26" height="26" viewBox="0 0 26 26">
  <g id="Group_294" data-name="Group 294" transform="translate(-934 -481)">
    <g id="RM_ICONS" data-name="RM ICONS" transform="translate(934 481)">
      <circle id="Ellipse_37" data-name="Ellipse 37" cx="13" cy="13" r="13" fill="#ff4600"/>
      <path id="emo-devil" d="M1.57,0A.616.616,0,0,0,1.5,0L1.445.009h0L1.4.017l-.013,0a.969.969,0,0,0-.339.167Q1.021.21.991.235T.935.285h0a2.9,2.9,0,0,0-.4.472Q.5.807.468.857c-.02.032-.04.064-.058.1v0h0a3.031,3.031,0,0,0-.235.53q-.018.053-.033.106T.112,1.7h0a4.19,4.19,0,0,0,.261,2.65,3.49,3.49,0,0,0,.206.4,2.522,2.522,0,0,0,.23.321l0,.006,0,0h0a.415.415,0,0,0,.575.045L1.4,5.115a.415.415,0,0,0,.049-.05h0l.007-.009.009-.011c.053-.072.106-.143.161-.21l.032-.04.032-.038h0q.084-.1.173-.2L1.9,4.518l.027-.029,0,0h0l0,0h0A5.96,5.96,0,0,1,2.972,3.6q.111-.074.225-.143t.221-.126l.013-.007A.416.416,0,0,0,3.6,2.767h0a.414.414,0,0,0-.152-.159h0l-.023-.013-.014-.007-.039-.016h0a2.532,2.532,0,0,1-.275-.117l-.049-.025L3,2.408,2.991,2.4h0a2.159,2.159,0,0,1-.222-.143l-.039-.031L2.7,2.206,2.694,2.2h0l0,0h0a1.521,1.521,0,0,1-.558-.94,1.346,1.346,0,0,1-.015-.2,1.325,1.325,0,0,1,.014-.2h0v0a1.063,1.063,0,0,0,0-.363Q2.124.458,2.115.427T2.094.367h0v0A.575.575,0,0,0,1.887.1.558.558,0,0,0,1.833.069C1.814.058,1.8.049,1.777.042h0A.576.576,0,0,0,1.572,0ZM12.52,0a.574.574,0,0,0-.2.042h0a.513.513,0,0,0-.056.027A.557.557,0,0,0,12.2.1.577.577,0,0,0,12,.363v0h0q-.012.029-.021.06t-.015.063a1.053,1.053,0,0,0,0,.363v0h0a1.374,1.374,0,0,1,.014.2,1.346,1.346,0,0,1-.015.2,1.522,1.522,0,0,1-.558.94h0l0,0h0l-.007.007-.028.022-.039.031A2.159,2.159,0,0,1,11.1,2.4h0l-.011.007-.04.021L11,2.454a2.532,2.532,0,0,1-.275.117h0l-.039.016-.014.007-.023.013h0a.414.414,0,0,0-.152.159h0a.416.416,0,0,0,.166.561l.013.007q.112.061.221.126t.225.143a5.96,5.96,0,0,1,1.04.877h0l0,0h0l0,0,.027.029.035.038c.058.063.115.13.173.2h0l.032.038.032.04c.054.067.108.138.161.21l.009.011.007.009h0a.416.416,0,0,0,.049.05l.007.006a.415.415,0,0,0,.575-.045h0l0,0,0-.006a2.511,2.511,0,0,0,.23-.321,3.459,3.459,0,0,0,.206-.4A4.187,4.187,0,0,0,13.981,1.7h0q-.014-.054-.029-.107t-.033-.106a2.99,2.99,0,0,0-.235-.53h0l0,0q-.056-.1-.121-.195a2.9,2.9,0,0,0-.4-.472h0Q13.13.26,13.1.236t-.06-.047A.969.969,0,0,0,12.7.021l-.013,0L12.647.011v0L12.593,0c-.024,0-.047,0-.071,0ZM3.132,5.472l-.014.018h0a2.882,2.882,0,0,0,0,3.205,1.541,1.541,0,0,0,1.227.693h.009c1.155,0,1.714-1.325,1.716-2.287h0V7.088h0c0-.078,0-.154-.01-.23-.032-.014-.063-.029-.1-.046L3.132,5.473Zm7.825,0L8.123,6.811c-.032.018-.063.032-.1.046-.006.076-.01.152-.01.23h0V7.1h0c0,.962.561,2.284,1.716,2.287h.009A1.541,1.541,0,0,0,10.97,8.7a2.882,2.882,0,0,0,0-3.205h0l-.014-.018Zm.309,5.26a.745.745,0,0,0-.527.224h0l-.028.029a4.97,4.97,0,0,1-.432.417,5.059,5.059,0,0,1-.487.366,4.988,4.988,0,0,1-2.964.821h0v0a5,5,0,0,1-1.892-.463q-.143-.067-.282-.142A4.974,4.974,0,0,1,3.37,10.981a.749.749,0,0,0-1.1,1.012A6.483,6.483,0,0,0,3.942,13.3q.189.1.368.186a6.48,6.48,0,0,0,2.455.6v0h0A6.495,6.495,0,0,0,11.815,12a.748.748,0,0,0-.548-1.265Z" transform="translate(5.999 6)" fill="#fff"/>
    </g>
  </g>
</svg>
