<?xml version="1.0" encoding="utf-8"?>
<!-- Generator: Adobe Illustrator 24.0.1, SVG Export Plug-In . SVG Version: 6.00 Build 0)  -->
<svg version="1.1" id="Layer_1" xmlns="http://www.w3.org/2000/svg" xmlns:xlink="http://www.w3.org/1999/xlink" x="0px" y="0px"
	 viewBox="0 0 68 69" style="enable-background:new 0 0 68 69;" xml:space="preserve">
<style type="text/css">
	.st0{fill:#FF4600;}
	.st1{fill:#CC3300;}
	.st2{fill:#B72A04;}
</style>
<g>
	<g>
		<path class="st0" d="M34,66.21c-9.37,0-10.49-0.04-14.24-0.21c-3.86-0.18-6.02-0.85-7.47-1.41c-2.03-0.79-3.55-1.78-5.08-3.31
			c-1.53-1.53-2.52-3.05-3.31-5.08c-0.56-1.45-1.23-3.61-1.41-7.46c-0.17-3.73-0.21-4.85-0.21-14.24c0-9.39,0.04-10.51,0.21-14.24
			c0.18-3.86,0.85-6.02,1.41-7.46c0.79-2.04,1.78-3.56,3.31-5.08c1.53-1.53,3.05-2.52,5.08-3.31c1.45-0.56,3.61-1.23,7.46-1.41
			C23.51,2.82,24.63,2.79,34,2.79s10.49,0.04,14.24,0.21c3.85,0.17,6.01,0.84,7.46,1.41c2.04,0.79,3.56,1.78,5.08,3.31
			c1.53,1.53,2.52,3.05,3.31,5.08v0c0.56,1.45,1.23,3.61,1.41,7.46c0.17,3.73,0.21,4.84,0.21,14.24c0,9.4-0.04,10.51-0.21,14.24
			c-0.18,3.86-0.84,6.01-1.41,7.46c-0.79,2.04-1.78,3.56-3.31,5.09c-1.53,1.53-3.05,2.52-5.08,3.31c-1.45,0.56-3.61,1.23-7.46,1.41
			C44.49,66.18,43.37,66.21,34,66.21z M34,9.01c-9.24,0-10.33,0.04-13.96,0.2c-2.95,0.13-4.48,0.6-5.49,0.99
			c-1.23,0.48-2.02,0.99-2.94,1.91c-0.92,0.91-1.43,1.71-1.91,2.94c-0.39,1.01-0.86,2.54-0.99,5.49c-0.17,3.61-0.2,4.7-0.2,13.96
			c0,9.26,0.03,10.34,0.2,13.95c0.14,2.95,0.6,4.49,0.99,5.49c0.48,1.23,1,2.02,1.91,2.94c0.92,0.92,1.71,1.44,2.94,1.91
			c1.01,0.39,2.54,0.86,5.49,0.99c3.63,0.17,4.72,0.2,13.96,0.2c9.23,0,10.32-0.04,13.96-0.2c2.95-0.13,4.48-0.6,5.49-0.99
			c1.23-0.48,2.02-0.99,2.94-1.91c0.92-0.92,1.43-1.71,1.91-2.94c0.39-1,0.86-2.54,0.99-5.49c0.17-3.61,0.2-4.7,0.2-13.95
			c0-9.26-0.04-10.35-0.2-13.96c-0.14-2.95-0.6-4.49-0.99-5.49l0,0c-0.48-1.23-0.99-2.02-1.91-2.94c-0.92-0.92-1.71-1.43-2.94-1.91
			c-1.01-0.39-2.55-0.86-5.49-0.99C44.33,9.05,43.24,9.01,34,9.01z"/>
	</g>
	<path class="st0" d="M51.93,20.06c-2.31,0-4.19-1.87-4.19-4.19c0-2.31,1.87-4.19,4.19-4.19c2.31,0,4.19,1.88,4.19,4.19
		C56.12,18.19,54.24,20.06,51.93,20.06z"/>
	<path class="st0" d="M34,16.58c-9.89,0-17.92,8.02-17.92,17.92c0,9.89,8.02,17.92,17.92,17.92c9.89,0,17.92-8.02,17.92-17.92
		C51.92,24.61,43.89,16.58,34,16.58z M34,46.13c-6.42,0-11.63-5.21-11.63-11.63c0-6.42,5.21-11.63,11.63-11.63
		c6.42,0,11.63,5.21,11.63,11.63C45.63,40.92,40.42,46.13,34,46.13z"/>
</g>
</svg>
