<?xml version="1.0" encoding="utf-8"?>
<!-- Generator: Adobe Illustrator 24.0.1, SVG Export Plug-In . SVG Version: 6.00 Build 0)  -->
<svg version="1.1" id="Layer_1" xmlns="http://www.w3.org/2000/svg" xmlns:xlink="http://www.w3.org/1999/xlink" x="0px" y="0px"
	 viewBox="0 0 68 69" style="enable-background:new 0 0 68 69;" xml:space="preserve">
<style type="text/css">
	.st0{fill:#FF4600;}
	.st1{fill:#CC3300;}
	.st2{fill:#B72A04;}
</style>
<g>
	<rect x="1.08" y="23.09" class="st0" width="14.12" height="45.4"/>
	<path class="st0" d="M8.14,16.88c-4.53,0-8.18-3.66-8.18-8.19c0-4.51,3.65-8.18,8.18-8.18c4.52,0,8.18,3.67,8.18,8.18
		C16.32,13.21,12.66,16.88,8.14,16.88z"/>
	<path class="st0" d="M68.04,68.48H53.95V46.41c0-5.27-0.1-12.04-7.34-12.04c-7.34,0-8.46,5.73-8.46,11.66v22.46H24.06v-45.4h13.53
		v6.2h0.19c1.88-3.57,6.49-7.33,13.35-7.33c14.27,0,16.91,9.4,16.91,21.63V68.48z"/>
</g>
</svg>
