<?xml version="1.0" encoding="utf-8"?>
<!-- Generator: Adobe Illustrator 24.0.1, SVG Export Plug-In . SVG Version: 6.00 Build 0)  -->
<svg version="1.1" id="Layer_1" xmlns="http://www.w3.org/2000/svg" xmlns:xlink="http://www.w3.org/1999/xlink" x="0px" y="0px"
	 viewBox="0 0 109 59" style="enable-background:new 0 0 109 59;" xml:space="preserve">
<style type="text/css">
	.st0{fill:#FF4600;}
	.st1{fill:#CC3300;}
	.st2{fill:#B72A04;}
</style>
<g>
	<path class="st0" d="M31.72,0.93C15.94,0.96,3.18,13.79,3.21,29.57c0.04,15.73,12.78,28.47,28.5,28.5
		c15.78-0.04,28.54-12.86,28.5-28.64C60.19,13.71,47.45,0.96,31.72,0.93z M76.25,2.61C68.36,2.64,61.98,14.71,62,29.57
		c0.02,14.8,6.39,26.79,14.25,26.83c7.89-0.04,14.27-12.11,14.25-26.96C90.49,14.63,84.12,2.64,76.25,2.61z M98.1,4.29
		c-3.25-0.03-5.89,11.22-5.9,25.15c-0.01,13.92,2.62,25.24,5.87,25.27c0.01,0,0.02,0,0.03,0c3.25,0.03,5.89-11.22,5.9-25.15
		s-2.62-25.24-5.87-25.27C98.12,4.29,98.11,4.29,98.1,4.29z"/>
</g>
</svg>
