<?xml version="1.0" encoding="utf-8"?>
<!-- Generator: Adobe Illustrator 24.0.1, SVG Export Plug-In . SVG Version: 6.00 Build 0)  -->
<svg version="1.1" id="Layer_1" xmlns="http://www.w3.org/2000/svg" xmlns:xlink="http://www.w3.org/1999/xlink" x="0px" y="0px"
	 viewBox="0 0 68 69" style="enable-background:new 0 0 68 69;" xml:space="preserve">
<style type="text/css">
	.st0{fill:#FF4600;}
	.st1{fill:#CC3300;}
	.st2{fill:#B72A04;}
</style>
<path class="st0" d="M60.42,20.95c0.03,0.58,0.04,1.17,0.04,1.76c0,18.01-13.71,38.79-38.79,38.79c-7.7,0-14.86-2.26-20.9-6.12
	c1.07,0.13,2.15,0.19,3.25,0.19c6.39,0,12.27-2.18,16.93-5.84c-5.97-0.11-11-4.05-12.74-9.47c0.83,0.16,1.69,0.25,2.56,0.25
	c1.24,0,2.45-0.17,3.59-0.48C8.14,38.78,3.44,33.27,3.44,26.66c0-0.06,0-0.12,0-0.17c1.84,1.02,3.94,1.64,6.18,1.71
	c-3.66-2.44-6.07-6.62-6.07-11.35c0-2.5,0.68-4.84,1.85-6.85c6.72,8.25,16.77,13.67,28.1,14.24c-0.23-1-0.35-2.04-0.35-3.11
	c0-7.53,6.11-13.63,13.63-13.63c3.92,0,7.46,1.66,9.95,4.31c3.1-0.61,6.02-1.75,8.66-3.31c-1.02,3.18-3.18,5.85-5.99,7.54
	c2.76-0.33,5.39-1.06,7.83-2.15C65.4,16.63,63.09,19.03,60.42,20.95z"/>
</svg>
